<svg width="42" height="42" viewBox="0 0 42 42" fill="none" xmlns="http://www.w3.org/2000/svg">
<path d="M40.8273 19.5877H22.8916V1.65197C22.8916 0.739612 22.152 0 21.2396 0C20.3273 0 19.5877 0.739612 19.5877 1.65197V19.5877H1.65197C0.739612 19.5877 0 20.3273 0 21.2396C0 22.152 0.739612 22.8916 1.65197 22.8916H19.5877V40.8273C19.5877 41.7397 20.3273 42.4793 21.2396 42.4793C22.152 42.4793 22.8916 41.7397 22.8916 40.8273V22.8916H40.8273C41.7397 22.8916 42.4793 22.152 42.4793 21.2396C42.4793 20.3273 41.7397 19.5877 40.8273 19.5877Z" fill="#1D1D1B"/>
</svg>
